<?xml version="1.0" encoding="utf-8"?>
<!-- Generator: Adobe Illustrator 24.1.1, SVG Export Plug-In . SVG Version: 6.00 Build 0)  -->
<svg version="1.1" id="Layer_1" xmlns="http://www.w3.org/2000/svg" xmlns:xlink="http://www.w3.org/1999/xlink" x="0px" y="0px"
	 viewBox="0 0 189.5 154.8" style="enable-background:new 0 0 189.5 154.8;" xml:space="preserve">
<style type="text/css">
	.st0{opacity:0.15;fill:#D07217;enable-background:new    ;}
	.st1{fill:#D07217;}
</style>
<path class="st0" d="M11.8,145.8c11.5,5.6,24,8.7,36.8,9h4.2c7.2-0.2,12.8-1.8,36-8c14.6-3.9,21.8-5.8,26-6c18-0.8,20.9,7.5,37,8
	c19.4,0.6,30.6-11,37.8-11V0H0v140.4C3.3,141.8,7.2,143.6,11.8,145.8z"/>
<g>
	<path class="st1" d="M85.8,89.1c2.2,3,4.3,5.8,5.7,7.5c0.2,0.3,0.4,0.5,0.6,0.7h-4.3c-0.5,0-0.8,0.5-0.8,0.9c0,0.4,0.4,0.8,0.8,0.8
		h13.9c0.5,0,0.9-0.3,0.9-0.8c0-0.5-0.3-0.9-0.8-0.9c-0.1,0-0.1,0-0.2,0h-4.3l0.6-0.7c1.4-1.7,3.6-4.5,5.7-7.5c2.1-3,4-6.1,5.7-9.3
		c1.8-3.5,2.7-6.4,2.7-8.6c0-4.6-1.8-9.1-5-12.3c-0.2-0.2-0.5-0.3-0.8-0.2c-0.5,0.1-0.8,0.6-0.6,1.1c0,0.2,0.1,0.3,0.2,0.4
		c2.9,3,4.6,7,4.6,11.1c0,2-0.8,4.6-2.5,7.8c-1.6,3.2-3.5,6.2-5.6,9.1c-2.1,3-4.2,5.7-5.6,7.4c-0.5,0.6-0.9,1.1-1.3,1.5
		c-0.2,0.2-0.4,0.3-0.6,0.3c-0.3,0-0.5-0.1-0.7-0.3l-1.3-1.5c-1.4-1.7-3.5-4.4-5.6-7.4c-2.1-2.9-4-5.9-5.6-9.1
		c-1.7-3.2-2.5-5.9-2.5-7.8c-0.1-8.6,6.8-15.7,15.5-15.7c2.1,0,4.3,0.4,6.2,1.2c0.3,0.1,0.6,0.1,0.9-0.1c0.2-0.2,0.4-0.5,0.3-0.8
		c0-0.3-0.2-0.6-0.5-0.7c-8.8-3.7-19,0.4-22.7,9.2c0,0,0,0,0,0.1c-0.9,2.2-1.4,4.5-1.4,6.9c0,2.2,0.9,5.1,2.7,8.6
		C81.8,83.1,83.7,86.2,85.8,89.1z"/>
	<path class="st1" d="M94.8,63.4c0.5,0,0.8-0.5,0.8-0.9c0-0.4-0.4-0.8-0.8-0.8l0,0c-4.8,0-8.7,3.9-8.7,8.7c0,4.8,3.9,8.7,8.7,8.7
		c4.8,0,8.7-3.9,8.7-8.7c0-2.3-0.9-4.5-2.5-6.2c-0.2-0.2-0.5-0.3-0.8-0.2c-0.3,0.1-0.6,0.3-0.6,0.6c-0.1,0.3,0,0.6,0.2,0.8
		c2.7,2.7,2.7,7.1,0,9.9c-2.7,2.7-7.1,2.7-9.8,0c-2.7-2.7-2.7-7.1,0-9.9C91.1,64.1,92.9,63.4,94.8,63.4z"/>
	<path class="st1" d="M120.5,101.4l-5.3-9.6c-0.5-0.9-1.4-1.4-2.4-1.4h-6.2c-0.5,0-0.8,0.5-0.8,0.9c0,0.4,0.4,0.8,0.8,0.8h6.2
		c0.4,0,0.7,0.2,0.9,0.5l5.3,9.6c0.2,0.2,0.2,0.6,0,0.8c-0.2,0.3-0.5,0.5-0.8,0.5H71.4c-0.3,0-0.7-0.2-0.8-0.5
		c-0.1-0.2-0.1-0.6,0-0.8l5.3-9.6c0.2-0.3,0.5-0.5,0.8-0.5h6.2c0.5,0,0.8-0.5,0.8-0.9c0-0.4-0.4-0.8-0.8-0.8h-6.2
		c-1,0-1.9,0.5-2.4,1.4l-5.3,9.6c-0.5,0.8-0.5,1.7,0,2.5c0.5,0.8,1.4,1.3,2.3,1.3h46.7c1,0,1.9-0.5,2.3-1.3
		C120.9,103.1,120.9,102.2,120.5,101.4z"/>
	<path class="st1" d="M111.2,94.8h-3.5c-0.2,0-0.3,0.1-0.5,0.1l-2.6,1.7c-0.4,0.3-0.5,0.8-0.2,1.2c0.3,0.4,0.8,0.5,1.2,0.2
		c0,0,0,0,0,0l0,0l2.4-1.6h3.2c0.5,0,0.8-0.5,0.8-0.9C112,95.1,111.6,94.8,111.2,94.8L111.2,94.8L111.2,94.8z"/>
	<path class="st1" d="M106,100.9c0,0.5,0.4,0.9,0.9,0.9h6.9c0.5,0,0.8-0.5,0.8-0.9c0-0.4-0.4-0.8-0.8-0.8h-6.9
		C106.4,100,106,100.4,106,100.9L106,100.9z"/>
	<path class="st1" d="M84.4,98.2c0.4,0,0.7-0.3,0.8-0.6c0.1-0.4,0-0.8-0.4-1l-2.6-1.7c-0.1-0.1-0.3-0.1-0.5-0.1h-3.5
		c-0.5,0-0.8,0.5-0.8,0.9c0,0.4,0.4,0.8,0.8,0.8h3.2l2.4,1.6C84,98.2,84.2,98.2,84.4,98.2z"/>
	<path class="st1" d="M75.7,100c-0.5,0-0.8,0.5-0.8,0.9c0,0.4,0.4,0.8,0.8,0.8h6.9c0.5,0,0.8-0.5,0.8-0.9c0-0.4-0.4-0.8-0.8-0.8
		H75.7z"/>
</g>
</svg>
