<?xml version="1.0" encoding="utf-8"?>
<!-- Generator: Adobe Illustrator 24.2.1, SVG Export Plug-In . SVG Version: 6.00 Build 0)  -->
<svg version="1.1" id="Layer_1" xmlns="http://www.w3.org/2000/svg" xmlns:xlink="http://www.w3.org/1999/xlink" x="0px" y="0px"
	 viewBox="0 0 344 304" style="enable-background:new 0 0 344 304;" xml:space="preserve">
<style type="text/css">
	.st0{fill:#396BC4;}
	.st1{fill:#96B2BC;}
	.st2{fill:#383838;}
	.st3{fill:#B9C1C6;}
	.st4{fill:#4881FF;}
	.st5{fill:#494949;}
	.st6{fill:#E8D379;}
	.st7{fill:#19AFAF;}
</style>
<path class="st0" d="M55,152.9v96.1c0,5.5-4.5,9.9-9.9,9.9c0,0,0,0,0,0H10V143h35.1C50.5,143,55,147.5,55,152.9L55,152.9z"/>
<rect x="55" y="157" class="st1" width="36" height="88"/>
<path class="st2" d="M284.4,115.8c-1.5,6.2-2.7,16.8-3.2,29.5c-1,0.4-2,0.5-3.1,0.4l-11.3-1.4l3.9-30.3L284.4,115.8z"/>
<polygon class="st3" points="203.4,112.2 170,221 91,223 91,179 137.9,179 161.2,99.8 "/>
<path class="st4" d="M118.3,70.9l152.5,20.6c2.2,0.3,3.7,2.3,3.4,4.5l-6.8,50.6c-0.3,2.2-2.3,3.7-4.5,3.4l-152.5-20.6
	c-2.2-0.3-3.7-2.3-3.4-4.5l6.8-50.6C114.1,72.1,116.1,70.6,118.3,70.9z"/>
<path class="st5" d="M288.1,116.3l-3.1,24.2c-0.3,2.2-1.7,4.1-3.8,4.9c0.5-12.8,1.6-23.4,3.2-29.5L288.1,116.3z"/>
<path class="st0" d="M308.3,119.9L111.2,93.3l5.8-43.5c0.5-4.1,4.3-6.9,8.4-6.4c0,0,0,0,0,0l213.9,28.8L308.3,119.9z"/>
<circle class="st6" cx="134.5" cy="111.5" r="5.5"/>
<circle class="st7" cx="151.5" cy="114.5" r="5.5"/>
</svg>
