<?xml version="1.0" encoding="utf-8"?>
<!-- Generator: Adobe Illustrator 24.1.1, SVG Export Plug-In . SVG Version: 6.00 Build 0)  -->
<svg version="1.1" id="Layer_1" xmlns="http://www.w3.org/2000/svg" xmlns:xlink="http://www.w3.org/1999/xlink" x="0px" y="0px"
	 viewBox="0 0 189.5 154.8" style="enable-background:new 0 0 189.5 154.8;" xml:space="preserve">
<style type="text/css">
	.st0{opacity:0.15;fill:#2F86BC;enable-background:new    ;}
	.st1{fill:#1F74B0;}
</style>
<path class="st0" d="M11.8,145.8c11.5,5.6,24,8.7,36.8,9h4.2c7.2-0.2,12.8-1.8,36-8c14.6-3.9,21.8-5.8,26-6c18-0.8,20.9,7.5,37,8
	c19.4,0.6,30.6-11,37.8-11V0H0v140.4C3.3,141.8,7.2,143.6,11.8,145.8z"/>
<g>
	<path class="st1" d="M94.8,57.1c-0.6,0-1,0.5-1,1c0,0.6,0.5,1,1,1c0.6,0,1-0.5,1-1C95.8,57.6,95.3,57.1,94.8,57.1z"/>
	<path class="st1" d="M115.3,59.2c-2.8,0-5.1-2.3-5.1-5.1c0-0.6-0.5-1-1-1H80.5c-0.6,0-1,0.5-1,1c0,2.8-2.3,5.1-5.1,5.1
		c-0.6,0-1,0.5-1,1v16.7c0,13.1,8.6,24.7,21.2,28.5c0.2,0.1,0.4,0.1,0.6,0c12.6-3.8,21.2-15.4,21.2-28.5V60.2
		C116.2,59.7,115.8,59.2,115.3,59.2z M114.3,76.9c0.1,12.2-7.9,22.9-19.5,26.5c-11.6-3.6-19.5-14.3-19.5-26.5V61.2
		c3.2-0.5,5.6-2.9,6.1-6.1h26.8c0.5,3.1,2.9,5.6,6.1,6.1L114.3,76.9z"/>
	<path class="st1" d="M111.6,62.5c-2.1-0.9-3.8-2.6-4.8-4.8c-0.2-0.4-0.5-0.6-0.9-0.6h-7c-0.6-0.1-1.1,0.4-1.1,0.9
		c-0.1,0.6,0.4,1.1,0.9,1.1c0,0,0,0,0,0h6.4c1.1,2.1,2.8,3.8,4.9,4.9v12.8c0.1,9.9-6.1,18.8-15.4,22.1c-9.3-3.4-15.4-12.2-15.4-22.1
		V64.1c2.1-1.1,3.9-2.8,4.9-4.9h6.4c0.6,0,1.1-0.4,1.1-1c0-0.6-0.4-1-0.9-1.1h-7.2c-0.4,0-0.8,0.3-0.9,0.6c-0.9,2.1-2.6,3.8-4.8,4.8
		c-0.4,0.2-0.6,0.5-0.6,0.9V77c-0.1,10.9,6.8,20.6,17.1,24.2c0.2,0.1,0.5,0.1,0.7,0c10.3-3.6,17.1-13.3,17.1-24.2V63.5
		C112.2,63.1,112,62.7,111.6,62.5z"/>
	<path class="st1" d="M94.8,68c-5.1,0-9.2,4.1-9.2,9.2s4.1,9.2,9.2,9.2c5.1,0,9.2-4.1,9.2-9.2l0,0C104,72.1,99.8,68,94.8,68z
		 M94.8,84.4c-4,0-7.2-3.2-7.2-7.2c0-4,3.2-7.2,7.2-7.2c4,0,7.2,3.2,7.2,7.2l0,0C101.9,81.2,98.7,84.4,94.8,84.4z"/>
	<path class="st1" d="M99.1,74.4c-0.4-0.4-1-0.4-1.5,0l-4.4,4.4l-1.3-1.3c-0.4-0.4-1-0.4-1.4,0c-0.4,0.4-0.4,1,0,1.4l0,0l2,2.1
		c0.4,0.4,1,0.4,1.4,0c0,0,0,0,0,0l0,0l5.1-5.1C99.4,75.5,99.5,74.9,99.1,74.4z"/>
</g>
</svg>
