<?xml version="1.0" encoding="utf-8"?>
<!-- Generator: Adobe Illustrator 24.1.1, SVG Export Plug-In . SVG Version: 6.00 Build 0)  -->
<svg version="1.1" id="Layer_1" xmlns="http://www.w3.org/2000/svg" xmlns:xlink="http://www.w3.org/1999/xlink" x="0px" y="0px"
	 viewBox="0 0 189.5 154.8" style="enable-background:new 0 0 189.5 154.8;" xml:space="preserve">
<style type="text/css">
	.st0{opacity:0.15;fill:#D07217;enable-background:new    ;}
	.st1{fill:#D07217;}
	.st2{stroke:#D07217;stroke-miterlimit:10;}
</style>
<path class="st0" d="M12,145.8c11.5,5.6,24,8.7,36.8,9H53c7.2-0.2,12.8-1.8,36-8c14.6-3.9,21.8-5.8,26-6c18-0.8,20.9,7.5,37,8
	c19.4,0.6,30.6-11,37.8-11V0H0.3v140.4C3.6,141.8,7.5,143.6,12,145.8z"/>
<g>
	<path class="st1" d="M90.5,39.5L90.5,39.5c-0.2-0.2-0.3-0.3-0.5-0.3c-0.5,0-4.5-0.2-4.5-4.9c0-0.4-0.3-0.7-0.7-0.7
		c-0.4,0-0.7,0.3-0.7,0.7c0,4.8-4.1,4.9-4.5,4.9c-0.2,0-0.3,0.1-0.5,0.2l-0.2,0.2c-0.2,0.3-0.1,0.8,0.2,0.9c0.1,0.1,0.2,0.1,0.3,0.1
		c0.5,0,4.5,0.2,4.5,4.9c0,0.4,0.3,0.7,0.7,0.7l0,0c0.2,0,0.4-0.1,0.5-0.2c0.2-0.2,0.2-0.3,0.2-0.5c0-4.8,4.1-4.9,4.5-4.9
		c0.2,0,0.5-0.2,0.5-0.3C90.7,40,90.7,39.7,90.5,39.5z M87.1,39.9c-1,0.5-1.9,1.3-2.4,2.3c-0.5-1-1.4-1.9-2.4-2.3
		c1-0.5,1.9-1.3,2.4-2.4C85.3,38.5,86.1,39.3,87.1,39.9z"/>
	<path class="st1" d="M69.8,54.3L69.8,54.3c-1.6,0-2.8-1.2-2.8-2.7c0-0.1,0-0.2,0-0.3c0-0.4-0.3-0.7-0.8-0.7c-0.5,0-0.8,0.3-0.7,0.8
		c0.1,0.7-0.2,1.5-0.6,2c-0.5,0.5-1.2,0.9-1.9,1h-0.4c-0.4,0-0.7,0.3-0.7,0.7c0,0.4,0.3,0.7,0.7,0.7c0.5,0,2.8,0.2,2.8,3.1
		c0,0.4,0.3,0.7,0.7,0.7l0,0c0.2,0,0.3-0.1,0.5-0.2c0.2-0.2,0.2-0.3,0.2-0.5c-0.1-0.7,0.2-1.5,0.6-2s1.2-0.9,2-1
		c0.1,0,0.2,0,0.3-0.1c0.4,0,0.7-0.3,0.7-0.8C70.5,54.6,70.2,54.3,69.8,54.3z M67.3,55c-0.5,0.3-0.8,0.6-1.1,1.1
		c-0.3-0.5-0.7-0.8-1.1-1.1c0.5-0.3,0.8-0.6,1.1-1.1C66.5,54.4,66.8,54.7,67.3,55z"/>
	<path class="st1" d="M113.1,46.7L113.1,46.7c-1.6,0-2.7-1.3-2.7-2.7v-0.2c0-0.2,0-0.4-0.2-0.5c-0.1-0.2-0.3-0.2-0.5-0.3
		c-0.4-0.1-0.8,0.2-0.9,0.6c0,0.1,0,0.2,0,0.2c0.2,1.5-0.9,2.8-2.4,3h-0.4c-0.4,0.1-0.7,0.5-0.6,0.9c0.1,0.3,0.3,0.5,0.7,0.6
		c1.5,0,2.7,1.3,2.7,2.7v0.3c0,0.4,0.3,0.7,0.7,0.7c0.1,0,0.1,0,0.2,0c0.2,0,0.2,0,0.3-0.1c0.2-0.2,0.3-0.4,0.3-0.6
		c-0.2-1.5,0.9-2.8,2.4-3h0.3c0.4,0,0.7-0.4,0.7-0.8C113.8,47.1,113.5,46.8,113.1,46.7z M110.6,47.5c-0.4,0.3-0.8,0.6-1.1,1
		c-0.3-0.4-0.6-0.8-1.1-1c0.4-0.3,0.8-0.6,1.1-1C109.9,46.8,110.3,47.1,110.6,47.5z"/>
	<path class="st1" d="M121.1,84.8c0-2.2-1.7-3.9-3.9-3.9h-1.4V65.4c0-2.2-1.7-3.9-3.9-3.9H89.1c-0.7,0.1-1.3,0.7-1.2,1.4
		c0.1,0.6,0.5,1.2,1.2,1.2h22.7c0.7,0,1.3,0.5,1.3,1.3l0,0l0,0v10.9c-1.6-1.4-3.8-2.2-6-2.1c0.5-3.2-2.5-6.1-5.6-6.1h-1.6
		c-3.1,0-6.1,2.9-5.6,6.1h-1.7c0.5-3.2-2.5-6.1-5.6-6.1h-1.6c-3.1,0-6.1,2.9-5.6,6.1c-2.1-0.1-4.1,0.7-5.6,2.1V65.4
		c0-0.7,0.5-1.3,1.3-1.3l0,0h3.2c0.7-0.1,1.3-0.7,1.2-1.4c-0.1-0.6-0.5-1.2-1.2-1.2h-3.2c-2.2,0-3.9,1.7-3.9,3.9v15.5h-1.4
		c-2.2,0-3.9,1.7-3.9,3.9v18.2c0,0.7,0.5,1.3,1.3,1.3c0.7,0,1.3-0.5,1.3-1.3l0,0v-3.6h49.8v3.6c0.1,0.7,0.7,1.3,1.4,1.2
		c0.6-0.1,1.2-0.5,1.2-1.2L121.1,84.8z M96.9,73.7c0-1.7,1.3-3.1,3.1-3.1h1.6c1.7,0,3.1,1.3,3.1,3.1c0,0.2-0.2,0.5-0.5,0.5h-6.8
		C97.1,74.2,96.9,73.9,96.9,73.7L96.9,73.7L96.9,73.7z M82.3,73.7c0-1.7,1.3-3.1,3.1-3.1H87c1.7,0,3.1,1.3,3.1,3.1
		c0,0.2-0.2,0.5-0.5,0.5h-6.8C82.5,74.2,82.3,73.9,82.3,73.7z M107.7,76.8c2.5,0,4.7,1.7,5.2,4.2H74.2c0.6-2.4,2.7-4.1,5.2-4.1
		L107.7,76.8z M68.7,91.5h38.8c0.7-0.1,1.3-0.7,1.2-1.4c-0.1-0.6-0.5-1.2-1.2-1.2H68.7v-4.1c0-0.7,0.5-1.3,1.3-1.3l0,0h47.1
		c0.7,0,1.3,0.5,1.3,1.3l0,0l0,0v12.1H68.7V91.5z"/>
	<path class="st1" d="M110.6,89.7c-0.3-0.6-1-0.9-1.7-0.7c-0.6,0.3-0.9,1-0.7,1.7c0.3,0.6,1,0.9,1.7,0.7l0.2-0.1
		C110.6,90.9,110.9,90.3,110.6,89.7z"/>
	<path class="st1" d="M81.1,62c-0.4-0.6-1.2-0.8-1.8-0.4c-0.6,0.4-0.8,1.2-0.4,1.8l0,0c0.4,0.6,1.2,0.8,1.8,0.4
		c0.1,0,0.1-0.1,0.2-0.1C81.4,63.3,81.4,62.6,81.1,62z"/>
	<path class="st2" d="M128,62.9c-1.7,0-3.1-1.4-3.1-3.1c0-0.1,0-0.2,0-0.3c0-0.2-0.1-0.4-0.3-0.4l0,0c-0.2,0-0.4,0.1-0.4,0.3v0.1
		c0.2,1.7-1.1,3.2-2.8,3.4H121l0,0c-0.2,0-0.3,0.2-0.3,0.3c0,0.2,0.2,0.3,0.3,0.3l0,0l0,0c0.3,0,3.1,0.1,3.1,3.4
		c0,0.2,0.2,0.3,0.3,0.3c0.2,0.1,0.3-0.1,0.3-0.3c-0.2-1.7,1.1-3.2,2.8-3.4l0,0h0.3c0.2,0,0.3-0.2,0.3-0.4l0,0l0,0
		C128.3,63,128.2,62.9,128,62.9z M124.4,65.2c-0.4-0.9-1-1.5-1.9-1.9c0.9-0.4,1.5-1,1.9-1.9c0.4,0.9,1,1.5,1.9,1.9
		C125.5,63.7,124.8,64.3,124.4,65.2z"/>
</g>
</svg>
