<?xml version="1.0" encoding="utf-8"?>
<!-- Generator: Adobe Illustrator 24.2.1, SVG Export Plug-In . SVG Version: 6.00 Build 0)  -->
<svg version="1.1" id="Layer_1" xmlns="http://www.w3.org/2000/svg" xmlns:xlink="http://www.w3.org/1999/xlink" x="0px" y="0px"
	 viewBox="0 0 263 234" style="enable-background:new 0 0 263 234;" xml:space="preserve">
<style type="text/css">
	.st0{fill:#FF934A;}
	.st1{fill:#E8D379;}
	.st2{fill:#19AFAF;}
	.st3{fill:#009B93;}
	.st4{fill:#AF6635;}
	.st5{fill:#B3D6E0;}
	.st6{fill:#FFCA45;}
</style>
<path class="st0" d="M52,142V76.5C52,65.7,43.3,57,32.5,57H10v127h234v-42H52z"/>
<path class="st1" d="M240,142H52v-28h181.2c3.7,0,6.8,3,6.8,6.8c0,0,0,0,0,0V142z"/>
<rect x="94" y="104" class="st2" width="136" height="29"/>
<rect x="94" y="104" class="st3" width="25" height="29"/>
<path class="st4" d="M10,184h42l0,0l0,0c0,16-13,29-29,29l0,0H10l0,0V184L10,184z"/>
<path class="st4" d="M202,184h42l0,0v29l0,0h-13C215,213,202,200,202,184L202,184L202,184L202,184z"/>
<path class="st5" d="M84,114H52V74h17.4C77.4,74,84,80.5,84,88.6c0,0,0,0,0,0V114z"/>
<polygon class="st6" points="117.7,29.9 114.3,21.8 107.1,16.7 115.3,13.3 120.3,6.1 123.7,14.3 130.9,19.3 122.8,22.7 "/>
<polygon class="st6" points="184.7,56.9 181.3,48.7 174.1,43.7 182.3,40.3 187.3,33.1 190.7,41.3 197.9,46.3 189.8,49.7 "/>
<polygon class="st6" points="129.4,87.4 125.1,76.8 115.6,70.2 126.3,65.8 132.8,56.4 137.2,67 146.7,73.6 136,78 "/>
</svg>
