<?xml version="1.0" encoding="utf-8"?>
<!-- Generator: Adobe Illustrator 24.2.1, SVG Export Plug-In . SVG Version: 6.00 Build 0)  -->
<svg version="1.1" id="Layer_1" xmlns="http://www.w3.org/2000/svg" xmlns:xlink="http://www.w3.org/1999/xlink" x="0px" y="0px"
	 viewBox="0 0 285 250" style="enable-background:new 0 0 285 250;" xml:space="preserve">
<style type="text/css">
	.st0{fill:#4881FF;}
	.st1{fill:#FFCA45;}
	.st2{fill:#FF554D;}
</style>
<polygon class="st0" points="181.6,236.2 29,236.2 34.5,217.8 37.1,209.2 66.3,162.5 86.8,162.5 "/>
<polygon class="st1" points="249.2,224.4 240.9,236.2 206.8,236.2 118.3,174.5 126.7,162.5 234.2,162.5 "/>
<path class="st2" d="M140.9,15.8c-39.3,0-71.2,31.9-71.2,71.2c0,39.3,70.4,111.9,70.4,111.9s72.1-72.6,72.1-111.9
	C212.1,47.7,180.3,15.8,140.9,15.8z M140.5,111.6c-18,0-32.6-14.6-32.6-32.6s14.6-32.6,32.6-32.6s32.6,14.6,32.6,32.6
	S158.5,111.6,140.5,111.6L140.5,111.6z"/>
</svg>
