<svg id="Layer_1" data-name="Layer 1" xmlns="http://www.w3.org/2000/svg" viewBox="0 0 189.5 175.21"><defs><style>.cls-1,.cls-2{fill:#d07217;}.cls-1{opacity:0.15;}</style></defs><title>icons</title><path class="cls-1" d="M0,0V150l10.79,9.72A6.73,6.73,0,0,0,17,161.14L37,155.8c4.63-1.23,9,2.53,7.82,6.75l-1.57,5.67c-1.2,4.31,3.38,8.11,8.06,6.68l33.93-10.39c3.73-1.14,7.69,1.08,8.19,4.6.52,3.68,4.79,5.9,8.59,4.47l31.66-11.87c4.15-1.55,8.71,1.23,8.64,5.27v.59c-.08,4.51,5.49,7.26,9.68,4.77L189.5,150V0Z"/><path class="cls-2" d="M137.46,85a1.75,1.75,0,0,0-1.17-.75c-2.45,0-23.55-.85-23.55-25.36a1.39,1.39,0,1,0-2.77,0c0,24.51-21.1,25.36-23.45,25.36a1.21,1.21,0,0,0-.85.32,1.33,1.33,0,0,0-.42,1.81,1.46,1.46,0,0,0,1.27.75h.11c2.45,0,23.44.85,23.44,25.36a1.39,1.39,0,1,0,2.77,0c0-24.4,21-25.36,23.45-25.36a1.63,1.63,0,0,0,1.28-.75A1.31,1.31,0,0,0,137.46,85Zm-26.11,17C108.26,92,100.7,87.6,94.73,85.68c6-1.92,13.53-6.29,16.62-16.41C114.44,79.39,122,83.76,128,85.68,122,87.6,114.44,92,111.35,102.09Z"/><path class="cls-2" d="M93.77,57.33a1.44,1.44,0,0,0,1.39-1.49,1.41,1.41,0,0,0-1.39-1.39C92.49,54.45,81,54,81,40.6a1.39,1.39,0,0,0-2.77,0C78.21,54,66.7,54.45,65.42,54.45h-.1A1.39,1.39,0,0,0,64,55.84a1.41,1.41,0,0,0,1.38,1.39c1.39,0,12.79.42,12.79,13.85a1.41,1.41,0,0,0,1.39,1.38,1.23,1.23,0,0,0,1.28-1.28c0-13.42,11.5-13.85,12.78-13.85ZM79.49,63.41a14.27,14.27,0,0,0-7.67-7.57,14.32,14.32,0,0,0,7.67-7.57,14.34,14.34,0,0,0,7.67,7.57A14.35,14.35,0,0,0,79.49,63.41Z"/><path class="cls-2" d="M81.52,102.51c-1.28,0-12.79-.42-12.79-13.85a1.39,1.39,0,0,0-2.77,0c0,13.43-11.51,13.85-12.79,13.85h-.11a1.39,1.39,0,0,0,.11,2.77c1.39,0,12.79.43,12.79,13.86a1.41,1.41,0,0,0,1.38,1.38c.64.22,1.28-.42,1.28-1.28,0-13.42,11.51-13.85,12.79-13.85h.11a1.44,1.44,0,0,0,1.38-1.49A1.41,1.41,0,0,0,81.52,102.51Zm-14.28,9.06A14.63,14.63,0,0,0,59.56,104a14.37,14.37,0,0,0,7.68-7.57A14.27,14.27,0,0,0,74.91,104,14.3,14.3,0,0,0,67.24,111.57Z"/></svg>